<svg width="18" height="18" viewBox="0 0 18 18" fill="none" xmlns="http://www.w3.org/2000/svg">
<path d="M17.9699 12.4741C17.3321 13.9366 16.3066 15.211 14.9965 16.1689C13.6864 17.1269 12.1381 17.7345 10.5075 17.9307C8.87692 18.1269 7.22157 17.9047 5.70819 17.2864C4.19481 16.6682 2.87684 15.6757 1.887 14.409C0.897171 13.1423 0.27043 11.6461 0.0698989 10.0711C-0.130632 8.49604 0.102128 6.89778 0.744737 5.43725C1.38735 3.97672 2.41712 2.7055 3.73034 1.75162C5.04356 0.797732 6.59386 0.194862 8.22511 0.00372237C8.33829 -0.00932988 8.45285 0.0121338 8.55276 0.0651068C8.65267 0.11808 8.73292 0.199908 8.78227 0.299129C8.83388 0.396518 8.85216 0.507208 8.8345 0.615271C8.81683 0.723334 8.76412 0.823198 8.68395 0.900493C8.01431 1.54206 7.48464 2.30675 7.12624 3.14937C6.76785 3.992 6.58801 4.89546 6.59734 5.80636C6.60696 7.00365 6.93756 8.17813 7.55694 9.21535C8.17631 10.2526 9.06334 11.1172 10.1316 11.7249C11.1998 12.3326 12.4129 12.6627 13.6525 12.6831C14.8921 12.7035 16.1161 12.4134 17.2052 11.8411C17.3063 11.7907 17.4207 11.7708 17.5337 11.784C17.6467 11.7971 17.753 11.8428 17.8388 11.915C17.9119 11.9874 17.9628 12.078 17.986 12.1767C18.0091 12.2754 18.0035 12.3783 17.9699 12.4741Z" fill="#464646"/>
</svg>
