<svg width="31" height="31" viewBox="0 0 31 31" fill="none" xmlns="http://www.w3.org/2000/svg">
<path d="M25.8334 2.58333H10.3334C8.90608 2.58333 7.75004 3.73937 7.75004 5.16666V20.6667C7.75004 22.094 8.90608 23.25 10.3334 23.25H25.8334C27.2607 23.25 28.4167 22.094 28.4167 20.6667V5.16666C28.4167 3.73937 27.2607 2.58333 25.8334 2.58333ZM23.25 9.04166H19.375V16.1458C19.375 17.9283 17.9284 19.375 16.1459 19.375C14.3634 19.375 12.9167 17.9283 12.9167 16.1458C12.9167 14.3633 14.3634 12.9167 16.1459 12.9167C16.8757 12.9167 17.5409 13.1685 18.0834 13.5754V6.45833H23.25V9.04166ZM5.16671 7.75H2.58337V25.8333C2.58337 27.2606 3.73942 28.4167 5.16671 28.4167H23.25V25.8333H5.16671V7.75Z" fill="black"/>
</svg>
