<svg width="20" height="20" viewBox="0 0 20 20" fill="none" xmlns="http://www.w3.org/2000/svg">
<path d="M9.99992 14.1666C12.3011 14.1666 14.1666 12.3012 14.1666 9.99998C14.1666 7.69879 12.3011 5.83331 9.99992 5.83331C7.69873 5.83331 5.83325 7.69879 5.83325 9.99998C5.83325 12.3012 7.69873 14.1666 9.99992 14.1666Z" fill="#1E2126"/>
<path d="M17.4999 10.8334H16.6666C16.4456 10.8334 16.2336 10.7456 16.0773 10.5893C15.921 10.433 15.8333 10.221 15.8333 10C15.8333 9.77901 15.921 9.56705 16.0773 9.41076C16.2336 9.25448 16.4456 9.16669 16.6666 9.16669H17.4999C17.7209 9.16669 17.9329 9.25448 18.0892 9.41076C18.2455 9.56705 18.3333 9.77901 18.3333 10C18.3333 10.221 18.2455 10.433 18.0892 10.5893C17.9329 10.7456 17.7209 10.8334 17.4999 10.8334Z" fill="#1E2126"/>
<path d="M3.33341 10.8334H2.50008C2.27907 10.8334 2.06711 10.7456 1.91083 10.5893C1.75455 10.433 1.66675 10.221 1.66675 10C1.66675 9.77901 1.75455 9.56705 1.91083 9.41076C2.06711 9.25448 2.27907 9.16669 2.50008 9.16669H3.33341C3.55443 9.16669 3.76639 9.25448 3.92267 9.41076C4.07895 9.56705 4.16675 9.77901 4.16675 10C4.16675 10.221 4.07895 10.433 3.92267 10.5893C3.76639 10.7456 3.55443 10.8334 3.33341 10.8334Z" fill="#1E2126"/>
<path d="M14.7166 6.11664C14.5096 6.10726 14.3136 6.0211 14.1666 5.87497C14.0114 5.71883 13.9243 5.50762 13.9243 5.28747C13.9243 5.06731 14.0114 4.8561 14.1666 4.69997L14.7583 4.1083C14.833 4.02107 14.9249 3.95022 15.0283 3.9002C15.1317 3.85018 15.2443 3.82207 15.3591 3.81764C15.4739 3.8132 15.5883 3.83254 15.6952 3.87444C15.8022 3.91633 15.8993 3.97988 15.9805 4.06109C16.0617 4.14231 16.1253 4.23943 16.1672 4.34637C16.2091 4.4533 16.2284 4.56775 16.224 4.68251C16.2195 4.79728 16.1914 4.90989 16.1414 5.01328C16.0914 5.11667 16.0205 5.2086 15.9333 5.2833L15.3416 5.87497C15.2599 5.95631 15.1621 6.01979 15.0545 6.06139C14.9469 6.10299 14.8319 6.1218 14.7166 6.11664Z" fill="#1E2126"/>
<path d="M4.69996 16.1334C4.59029 16.134 4.48157 16.113 4.38004 16.0715C4.27851 16.03 4.18616 15.9689 4.10829 15.8917C3.95308 15.7356 3.86597 15.5243 3.86597 15.3042C3.86597 15.084 3.95308 14.8728 4.10829 14.7167L4.69996 14.1667C4.85938 14.0302 5.06444 13.9588 5.27417 13.9669C5.4839 13.975 5.68285 14.062 5.83126 14.2104C5.97968 14.3588 6.06662 14.5577 6.07472 14.7675C6.08282 14.9772 6.01148 15.1823 5.87496 15.3417L5.28329 15.9334C5.12158 16.0722 4.91283 16.1437 4.69996 16.1334Z" fill="#1E2126"/>
<path d="M10.0001 4.16669C9.77907 4.16669 9.56711 4.07889 9.41083 3.92261C9.25455 3.76633 9.16675 3.55437 9.16675 3.33335V2.50002C9.16675 2.27901 9.25455 2.06704 9.41083 1.91076C9.56711 1.75448 9.77907 1.66669 10.0001 1.66669C10.2211 1.66669 10.4331 1.75448 10.5893 1.91076C10.7456 2.06704 10.8334 2.27901 10.8334 2.50002V3.33335C10.8334 3.55437 10.7456 3.76633 10.5893 3.92261C10.4331 4.07889 10.2211 4.16669 10.0001 4.16669Z" fill="#1E2126"/>
<path d="M10.0001 18.3333C9.77907 18.3333 9.56711 18.2455 9.41083 18.0892C9.25455 17.933 9.16675 17.721 9.16675 17.5V16.6666C9.16675 16.4456 9.25455 16.2337 9.41083 16.0774C9.56711 15.9211 9.77907 15.8333 10.0001 15.8333C10.2211 15.8333 10.4331 15.9211 10.5893 16.0774C10.7456 16.2337 10.8334 16.4456 10.8334 16.6666V17.5C10.8334 17.721 10.7456 17.933 10.5893 18.0892C10.4331 18.2455 10.2211 18.3333 10.0001 18.3333Z" fill="#1E2126"/>
<path d="M5.28334 6.11667C5.06472 6.11575 4.85522 6.02896 4.70001 5.87501L4.10834 5.28334C3.97182 5.12392 3.90048 4.91886 3.90858 4.70913C3.91668 4.4994 4.00363 4.30045 4.15204 4.15204C4.30045 4.00363 4.4994 3.91668 4.70913 3.90858C4.91886 3.90048 5.12392 3.97182 5.28334 4.10834L5.87501 4.70001C6.03022 4.85614 6.11733 5.06735 6.11733 5.28751C6.11733 5.50766 6.03022 5.71887 5.87501 5.87501C5.79714 5.95224 5.70479 6.01335 5.60326 6.05482C5.50173 6.09629 5.39301 6.11731 5.28334 6.11667Z" fill="#1E2126"/>
<path d="M15.2999 16.1333C15.0813 16.1324 14.8718 16.0456 14.7166 15.8917L14.1666 15.3C14.0785 15.1417 14.0445 14.959 14.0695 14.7795C14.0946 14.6001 14.1775 14.4338 14.3056 14.3057C14.4337 14.1776 14.6001 14.0947 14.7795 14.0696C14.9589 14.0445 15.1416 14.0786 15.2999 14.1667L15.8916 14.7583C16.0468 14.9145 16.1339 15.1257 16.1339 15.3458C16.1339 15.566 16.0468 15.7772 15.8916 15.9333C15.7278 16.0742 15.5156 16.1459 15.2999 16.1333Z" fill="#1E2126"/>
</svg>
