<svg width="25" height="25" viewBox="0 0 25 25" fill="none" xmlns="http://www.w3.org/2000/svg">
<path d="M19.4448 11.5245L8.31944 0.399387C8.06212 0.141869 7.71863 0 7.35237 0C6.98611 0 6.64262 0.141869 6.38531 0.399387L5.566 1.21849C5.03288 1.75222 5.03288 2.61969 5.566 3.15262L14.9082 12.4948L5.55564 21.8474C5.29832 22.1049 5.15625 22.4482 5.15625 22.8142C5.15625 23.1807 5.29832 23.524 5.55564 23.7817L6.37494 24.6006C6.63246 24.8581 6.97575 25 7.34201 25C7.70826 25 8.05176 24.8581 8.30907 24.6006L19.4448 13.4653C19.7027 13.207 19.8443 12.8621 19.8435 12.4954C19.8443 12.1273 19.7027 11.7826 19.4448 11.5245Z" fill="black"/>
</svg>
